<?xml version="1.0" encoding="utf-8"?>
<!-- Generator: Adobe Illustrator 19.1.0, SVG Export Plug-In . SVG Version: 6.00 Build 0)  -->
<svg version="1.1" id="Layer_1" xmlns="http://www.w3.org/2000/svg" xmlns:xlink="http://www.w3.org/1999/xlink" x="0px" y="0px"
	 viewBox="0 0 100 100" style="enable-background:new 0 0 100 100;" xml:space="preserve">
<style type="text/css">
	.st0{fill:#FFFFFF;}
</style>
<g>
	<path class="st0" d="M50,68.9L50,68.9c-1.9,0-3.4-1.5-3.4-3.4v-31c0-1.9,1.5-3.4,3.4-3.4h0c1.9,0,3.4,1.5,3.4,3.4v31
		C53.4,67.4,51.9,68.9,50,68.9z"/>
	<path class="st0" d="M31.1,50L31.1,50c0-1.9,1.5-3.4,3.4-3.4h31c1.9,0,3.4,1.5,3.4,3.4v0c0,1.9-1.5,3.4-3.4,3.4h-31
		C32.6,53.4,31.1,51.9,31.1,50z"/>
</g>
</svg>
