<?xml version="1.0" encoding="utf-8"?>
<!-- Generator: Adobe Illustrator 19.2.0, SVG Export Plug-In . SVG Version: 6.00 Build 0)  -->
<svg version="1.1" id="Layer_1" xmlns="http://www.w3.org/2000/svg" xmlns:xlink="http://www.w3.org/1999/xlink" x="0px" y="0px"
	 viewBox="0 0 100 100" style="enable-background:new 0 0 100 100;" xml:space="preserve">
<style type="text/css">
	.st0{fill:#FFFFFF;}
</style>
<g>
	<path class="st0" d="M36.6,63.4L36.6,63.4c-1.3-1.3-1.3-3.5,0-4.8l21.9-21.9c1.3-1.3,3.5-1.3,4.8,0l0,0c1.3,1.3,1.3,3.5,0,4.8
		L41.4,63.4C40.1,64.7,38,64.7,36.6,63.4z"/>
	<path class="st0" d="M36.6,36.6L36.6,36.6c1.3-1.3,3.5-1.3,4.8,0l21.9,21.9c1.3,1.3,1.3,3.5,0,4.8l0,0c-1.3,1.3-3.5,1.3-4.8,0
		L36.6,41.4C35.3,40.1,35.3,38,36.6,36.6z"/>
</g>
</svg>
