<?xml version="1.0" encoding="utf-8"?>
<!-- Generator: Adobe Illustrator 19.1.0, SVG Export Plug-In . SVG Version: 6.00 Build 0)  -->
<svg version="1.1" id="Layer_1" xmlns="http://www.w3.org/2000/svg" xmlns:xlink="http://www.w3.org/1999/xlink" x="0px" y="0px"
	 viewBox="-247 370.9 100 100" style="enable-background:new -247 370.9 100 100;" xml:space="preserve">
<style type="text/css">
	.st0{fill:#FFFFFF;}
</style>
<g>
	<g>
		<path class="st0" d="M-202.5,434.6L-202.5,434.6c-0.4,0-0.8-0.2-1.1-0.4l-6.7-6.7c-0.6-0.6-0.6-1.5,0-2.1l17.3-17.3
			c0.6-0.6,1.5-0.6,2.1,0l6.7,6.7c0.6,0.6,0.6,1.5,0,2.1l-17.3,17.3C-201.7,434.4-202.1,434.6-202.5,434.6z M-207.1,426.4l4.6,4.6
			l15.2-15.2l-4.6-4.6L-207.1,426.4z"/>
	</g>
	<g>
		<path class="st0" d="M-185.2,417.3c-0.4,0-0.8-0.1-1.1-0.4l-6.7-6.7c-0.6-0.6-0.6-1.5,0-2.1l5.3-5.3c0.6-0.6,1.6-0.6,2.1,0
			l6.7,6.7c0.6,0.6,0.6,1.5,0,2.1l-5.3,5.3C-184.4,417.1-184.8,417.3-185.2,417.3z M-189.8,409l4.6,4.6l3.2-3.2l-4.6-4.6L-189.8,409
			z"/>
	</g>
	<g>
		<path class="st0" d="M-214.1,439.5c-0.4,0-0.8-0.2-1.1-0.4c-0.4-0.4-0.6-1.1-0.3-1.6l4.9-11.6c0.2-0.5,0.6-0.8,1.1-0.9
			c0.5-0.1,1,0.1,1.3,0.4l6.7,6.7c0.4,0.4,0.5,0.9,0.4,1.3c-0.1,0.5-0.4,0.9-0.9,1.1l-11.6,4.9
			C-213.7,439.5-213.9,439.5-214.1,439.5z M-208.7,429l-2.6,6.2l6.2-2.6L-208.7,429z"/>
	</g>
</g>
</svg>
