<?xml version="1.0" encoding="utf-8"?>
<!-- Generator: Adobe Illustrator 19.1.0, SVG Export Plug-In . SVG Version: 6.00 Build 0)  -->
<svg version="1.1" id="Layer_1" xmlns="http://www.w3.org/2000/svg" xmlns:xlink="http://www.w3.org/1999/xlink" x="0px" y="0px"
	 viewBox="-247 370.9 100 100" style="enable-background:new -247 370.9 100 100;" xml:space="preserve">
<style type="text/css">
	.st0{fill:#FFFFFF;}
</style>
<g>
	<g>
		<path class="st0" d="M-185.1,414.3h-23.7c-1,0-1.9-0.8-1.9-1.9s0.8-1.9,1.9-1.9h23.7c1,0,1.9,0.8,1.9,1.9
			S-184.1,414.3-185.1,414.3z"/>
	</g>
	<g>
		<path class="st0" d="M-191.9,437.5h-10.2c-3.5,0-6.3-2.8-6.3-6.3v-20.7h22.8v20.7C-185.6,434.7-188.4,437.5-191.9,437.5z
			 M-204.7,414.3v17c0,1.4,1.2,2.6,2.6,2.6h10.2c1.4,0,2.6-1.2,2.6-2.6v-17H-204.7z"/>
	</g>
	<g>
		<path class="st0" d="M-190.8,414.3c-1,0-1.9-0.8-1.9-1.9c0-2.4-2-4.4-4.4-4.4s-4.4,2-4.4,4.4c0,1-0.8,1.9-1.9,1.9
			s-1.9-0.8-1.9-1.9c0-4.5,3.6-8.1,8.1-8.1s8.1,3.6,8.1,8.1C-188.9,413.4-189.7,414.3-190.8,414.3z"/>
	</g>
	<g>
		<g>
			<path class="st0" d="M-200.4,431.3c-1,0-1.9-0.8-1.9-1.9v-11.7c0-1,0.8-1.9,1.9-1.9s1.9,0.8,1.9,1.9v11.7
				C-198.5,430.4-199.3,431.3-200.4,431.3z"/>
		</g>
		<g>
			<path class="st0" d="M-193.6,431.3c-1,0-1.9-0.8-1.9-1.9v-11.7c0-1,0.8-1.9,1.9-1.9s1.9,0.8,1.9,1.9v11.7
				C-191.8,430.4-192.6,431.3-193.6,431.3z"/>
		</g>
	</g>
</g>
</svg>
