<?xml version="1.0" encoding="utf-8"?>
<!-- Generator: Adobe Illustrator 19.2.0, SVG Export Plug-In . SVG Version: 6.00 Build 0)  -->
<svg version="1.1" id="Layer_1" xmlns="http://www.w3.org/2000/svg" xmlns:xlink="http://www.w3.org/1999/xlink" x="0px" y="0px"
	 viewBox="0 0 100 100" style="enable-background:new 0 0 100 100;" xml:space="preserve">
<style type="text/css">
	.st0{opacity:0.5;enable-background:new    ;}
	.st1{opacity:0.5;}
</style>
<g>
	<path class="st0" d="M53.2,28c1.3,0,2.6,0.2,3.7,0.8c1.2,0.5,2.2,1.2,3,2c0.9,0.9,1.5,1.9,2,3c0.5,1.2,0.8,2.4,0.8,3.7
		c0,1.2-0.2,2.4-0.7,3.5c-0.4,1.1-1.1,2.1-1.8,2.9c-0.8,0.8-1.6,1.5-2.7,2.1c-1.1,0.5-2.2,0.9-3.3,1v-2.1c1.2-0.2,2.3-0.6,3.2-1.3
		c1-0.7,1.7-1.6,2.3-2.7c0.6-1.1,0.8-2.2,0.8-3.4c0-1-0.2-2-0.6-2.9c-0.4-0.9-0.9-1.7-1.5-2.3c-0.6-0.6-1.4-1.2-2.4-1.6
		c-0.9-0.4-1.9-0.6-2.9-0.6c-0.9,0-1.8,0.1-2.7,0.5S49,31.4,48.3,32c-0.6,0.6-1.2,1.3-1.6,2c-0.4,0.8-0.7,1.6-0.9,2.5h-2.2
		c-1.2,0-2.2,0.4-3,1.3c-0.8,0.8-1.3,1.8-1.3,3c0,0.6,0.1,1.3,0.4,1.8s0.6,1,1,1.3c0.4,0.3,0.9,0.6,1.3,0.8c0.5,0.2,1,0.3,1.5,0.3
		h4.2v2.1h-4.2c-1.2,0-2.2-0.3-3.2-0.9s-1.7-1.3-2.3-2.3c-0.6-1-0.9-2-0.9-3.2c0-1.2,0.3-2.2,0.9-3.2c0.6-1,1.3-1.7,2.3-2.3
		c1-0.6,2-0.9,3.2-0.9h0.5c0.4-1.3,1.1-2.3,2-3.3c0.9-1,1.9-1.7,3.2-2.3C50.5,28.3,51.8,28,53.2,28L53.2,28z M51,36.5
		c0.3,0,0.5,0.1,0.8,0.3l3.2,3.2c0.2,0.2,0.3,0.4,0.3,0.8c0,0.3-0.1,0.6-0.3,0.8c-0.2,0.2-0.4,0.3-0.8,0.3c-0.3,0-0.5-0.1-0.8-0.3
		l-1.3-1.4v7c0,0.3-0.1,0.5-0.3,0.8c-0.2,0.2-0.5,0.3-0.8,0.3c-0.3,0-0.5-0.1-0.8-0.3c-0.2-0.2-0.3-0.5-0.3-0.8v-7l-1.3,1.4
		c-0.2,0.2-0.4,0.3-0.8,0.3c-0.3,0-0.5-0.1-0.8-0.3c-0.2-0.2-0.3-0.5-0.3-0.8c0-0.3,0.1-0.5,0.3-0.8l3.2-3.2
		C50.5,36.6,50.7,36.5,51,36.5z"/>
	<g class="st1">
		<path d="M12.5,68v-3.2c0-0.3,0.2-0.5,0.5-0.5s0.5,0.2,0.5,0.5V68c0,0.5,0.2,1.1,1.1,1.1s1.1-0.6,1.1-1.1v-3.2
			c0-0.3,0.2-0.5,0.5-0.5s0.5,0.2,0.5,0.5V68c0,0.9-0.4,1.9-2,1.9S12.5,68.9,12.5,68z"/>
		<path d="M19.2,67.7v1.7c0,0.3-0.2,0.5-0.5,0.5s-0.5-0.2-0.5-0.5v-4.5c0-0.3,0.2-0.5,0.5-0.5h1.5c0.9,0,1.7,0.5,1.7,1.6
			c0,1.1-0.7,1.6-1.7,1.6H19.2z M19.2,65.2v1.6h1c0.5,0,0.8-0.3,0.8-0.8c0-0.5-0.3-0.8-0.8-0.8H19.2z"/>
		<path d="M26.3,68.9c0.3,0,0.4,0.2,0.4,0.4c0,0.2-0.2,0.4-0.4,0.4h-2.4c-0.3,0-0.5-0.2-0.5-0.4v-4.5c0-0.3,0.2-0.5,0.5-0.5
			s0.5,0.2,0.5,0.5v4.1H26.3z"/>
		<path d="M27.5,67.1c0-1.9,0.9-2.8,2.5-2.8c1.6,0,2.5,0.9,2.5,2.8c0,1.9-0.9,2.8-2.5,2.8C28.4,69.9,27.5,69,27.5,67.1z M28.5,67.1
			c0,1.3,0.5,2,1.6,2c1.1,0,1.6-0.6,1.6-2c0-1.3-0.5-2-1.6-2C29,65.1,28.5,65.8,28.5,67.1z"/>
		<path d="M35,68.4l-0.5,1.2c-0.1,0.2-0.2,0.3-0.4,0.3c-0.2,0-0.5-0.2-0.5-0.5c0,0,0-0.1,0-0.2l1.9-4.6c0-0.1,0.2-0.3,0.4-0.3
			s0.4,0.2,0.4,0.3l1.9,4.6c0,0.1,0,0.1,0,0.2c0,0.2-0.2,0.5-0.5,0.5c-0.2,0-0.4-0.1-0.4-0.3l-0.5-1.2H35z M35.9,65.9l-0.7,1.7h1.3
			L35.9,65.9z"/>
		<path d="M41.2,64.4c1.6,0,2.6,0.7,2.6,2.7c0,2-1,2.7-2.6,2.7h-1.1c-0.3,0-0.5-0.2-0.5-0.5v-4.5c0-0.3,0.2-0.5,0.5-0.5H41.2z
			 M40.6,69h0.6c1,0,1.6-0.5,1.6-1.9c0-1.4-0.6-1.9-1.6-1.9h-0.6V69z"/>
		<path d="M49,68.4l-0.5,1.2c-0.1,0.2-0.2,0.3-0.4,0.3c-0.2,0-0.5-0.2-0.5-0.5c0,0,0-0.1,0-0.2l1.9-4.6c0-0.1,0.2-0.3,0.4-0.3
			c0.2,0,0.4,0.2,0.4,0.3l1.9,4.6c0,0.1,0,0.1,0,0.2c0,0.2-0.2,0.5-0.5,0.5c-0.2,0-0.4-0.1-0.4-0.3L51,68.4H49z M50,65.9l-0.7,1.7
			h1.3L50,65.9z"/>
		<path d="M57.8,64.8v4.6c0,0.2-0.2,0.5-0.5,0.5c-0.2,0-0.3-0.1-0.4-0.2l-2.4-3.4v3.2c0,0.2-0.2,0.5-0.5,0.5s-0.5-0.2-0.5-0.5v-4.6
			c0-0.2,0.2-0.5,0.5-0.5c0.2,0,0.3,0.1,0.4,0.2l2.4,3.4v-3.2c0-0.2,0.2-0.5,0.5-0.5S57.8,64.6,57.8,64.8z"/>
		<path d="M63.1,69.4c0,0.3-0.2,0.5-0.5,0.5s-0.5-0.2-0.5-0.5v-4.6c0-0.3,0.2-0.5,0.5-0.5s0.5,0.2,0.5,0.5V69.4z"/>
		<path d="M67,68.7l-1.3-2.2v2.9c0,0.2-0.2,0.5-0.5,0.5s-0.5-0.2-0.5-0.5v-4.6c0-0.2,0.2-0.5,0.5-0.5c0.2,0,0.3,0.1,0.4,0.3l1.7,3
			l1.7-3c0.1-0.1,0.2-0.3,0.4-0.3c0.2,0,0.5,0.2,0.5,0.5v4.6c0,0.2-0.2,0.5-0.5,0.5S69,69.7,69,69.4v-2.9l-1.3,2.2
			c-0.1,0.1-0.2,0.2-0.4,0.2C67.2,68.9,67.1,68.9,67,68.7z"/>
		<path d="M72.8,68.4l-0.5,1.2c-0.1,0.2-0.2,0.3-0.4,0.3c-0.2,0-0.5-0.2-0.5-0.5c0,0,0-0.1,0-0.2l1.9-4.6c0-0.1,0.2-0.3,0.4-0.3
			s0.4,0.2,0.4,0.3l1.9,4.6c0,0.1,0,0.1,0,0.2c0,0.2-0.2,0.5-0.5,0.5c-0.2,0-0.4-0.1-0.4-0.3l-0.5-1.2H72.8z M73.7,65.9l-0.7,1.7
			h1.3L73.7,65.9z"/>
		<path d="M80.9,67.7h-1.1c-0.2,0-0.4-0.2-0.4-0.4c0-0.2,0.2-0.4,0.4-0.4h1.6c0.2,0,0.4,0.2,0.4,0.4v1.3c0,0.2,0,0.3-0.1,0.4
			c-0.4,0.5-1.2,0.9-2.1,0.9c-1.6,0-2.5-0.8-2.5-2.8c0-1.9,0.9-2.8,2.5-2.8c1,0,1.6,0.4,1.9,0.9c0.1,0.1,0.1,0.2,0.1,0.3
			c0,0.2-0.2,0.4-0.4,0.4c-0.1,0-0.2,0-0.3-0.2c-0.3-0.4-0.7-0.6-1.3-0.6c-1.1,0-1.5,0.7-1.5,2c0,1.4,0.5,2,1.5,2
			c0.6,0,1-0.1,1.3-0.5V67.7z"/>
		<path d="M84.4,66.7h1.5c0.2,0,0.4,0.2,0.4,0.4s-0.2,0.4-0.4,0.4h-1.5V69h2.1c0.2,0,0.4,0.2,0.4,0.4s-0.2,0.4-0.4,0.4h-2.6
			c-0.3,0-0.5-0.2-0.5-0.5v-4.5c0-0.3,0.2-0.5,0.5-0.5h2.5c0.2,0,0.4,0.2,0.4,0.4c0,0.2-0.2,0.4-0.4,0.4h-2V66.7z"/>
	</g>
</g>
</svg>
