<?xml version="1.0" encoding="utf-8"?>
<!-- Generator: Adobe Illustrator 19.2.0, SVG Export Plug-In . SVG Version: 6.00 Build 0)  -->
<svg version="1.1" id="Layer_1" xmlns="http://www.w3.org/2000/svg" xmlns:xlink="http://www.w3.org/1999/xlink" x="0px" y="0px"
	 viewBox="0 0 100 100" style="enable-background:new 0 0 100 100;" xml:space="preserve">
<style type="text/css">
	.st0{opacity:0.5;}
</style>
<path class="st0" d="M56.6,29c2.7,0,5.3,0.5,7.7,1.6c2.5,1.1,4.6,2.5,6.3,4.2c1.8,1.8,3.2,3.9,4.2,6.3c1.1,2.5,1.6,5,1.6,7.7
	c0,2.5-0.5,4.9-1.4,7.2c-0.9,2.3-2.2,4.3-3.7,6.1c-1.6,1.7-3.4,3.2-5.6,4.3c-2.2,1.1-4.5,1.9-6.9,2.1v-4.4c2.5-0.4,4.7-1.2,6.7-2.7
	c2-1.4,3.6-3.3,4.8-5.5c1.2-2.2,1.7-4.6,1.7-7.1c0-2.1-0.4-4.1-1.2-6C70,41,68.9,39.3,67.6,38s-3-2.5-4.9-3.3
	c-1.9-0.8-3.9-1.2-6-1.2c-1.9,0-3.7,0.3-5.5,1c-1.8,0.7-3.3,1.6-4.7,2.8c-1.3,1.2-2.5,2.6-3.4,4.2c-0.9,1.6-1.5,3.4-1.8,5.2h-4.6
	c-2.4,0-4.5,0.9-6.2,2.6s-2.6,3.8-2.6,6.2c0,1.3,0.3,2.6,0.8,3.7s1.2,2.1,2.1,2.8c0.9,0.7,1.8,1.3,2.8,1.7c1,0.4,2.1,0.6,3.1,0.6
	h8.8v4.4h-8.8c-2.4,0-4.6-0.6-6.6-1.8s-3.6-2.8-4.8-4.8c-1.2-2-1.8-4.2-1.8-6.6c0-2.4,0.6-4.6,1.8-6.6c1.2-2,2.8-3.6,4.8-4.8
	s4.2-1.8,6.6-1.8h1.1c0.9-2.6,2.3-4.8,4.1-6.8c1.8-2,4-3.6,6.6-4.7C51.1,29.6,53.8,29,56.6,29L56.6,29z M52.2,46.7
	c0.6,0,1.1,0.2,1.6,0.7l6.6,6.6c0.4,0.4,0.6,0.9,0.6,1.6c0,0.6-0.2,1.2-0.6,1.6c-0.4,0.4-0.9,0.6-1.6,0.6c-0.6,0-1.1-0.2-1.6-0.6
	l-2.8-2.9v14.5c0,0.6-0.2,1.1-0.6,1.6c-0.4,0.4-1,0.6-1.6,0.6s-1.1-0.2-1.6-0.6c-0.4-0.4-0.6-1-0.6-1.6V54.2l-2.8,2.9
	c-0.4,0.4-0.9,0.6-1.6,0.6c-0.6,0-1.1-0.2-1.6-0.6s-0.6-1-0.6-1.6c0-0.6,0.2-1.1,0.6-1.6l6.6-6.6C51.1,46.9,51.6,46.7,52.2,46.7z"/>
</svg>
